<?xml version="1.0" encoding="utf-8"?>
<!-- Generator: Adobe Illustrator 19.1.0, SVG Export Plug-In . SVG Version: 6.00 Build 0)  -->
<svg version="1.1" id="Layer_1" xmlns="http://www.w3.org/2000/svg" xmlns:xlink="http://www.w3.org/1999/xlink" x="0px" y="0px"
	 width="1000px" height="1000px" viewBox="0 0 1000 1000" style="enable-background:new 0 0 1000 1000;" xml:space="preserve">
<style type="text/css">
	.st0{fill:#FF6E0B;}
	.st1{fill:#FFA748;}
	.st2{fill:#F9BB6B;}
</style>
<g>
	<path id="path4398" class="st0" d="M779.6,109c110.9,0,200.9,89.9,200.9,200.9c0,67.4-33.9,130.3-90.2,167.5c0.6,7.7,1,15.3,1.1,23
		c0,216.1-175.2,391.4-391.4,391.4S108.6,716.6,108.6,500.4c0-7.7,0.3-15.5,0.8-23.3c-56.1-37.2-89.8-100-89.9-167.3
		C19.6,199,109.6,109,220.5,109l0,0c41.3,0.1,81.5,12.9,115.3,36.6c51.5-24,107.5-36.5,164.3-36.6c56.7,0.2,112.7,12.7,164.1,36.6
		C698,121.9,738.3,109.1,779.6,109z"/>
	<path id="path4400" class="st1" d="M789.3,147.6c87.7,0,158.8,71.1,158.8,158.8c0,53.3-26.8,103-71.3,132.4
		c-6.8-113.6-75.4-214.3-178.7-262.2C724.8,157.8,756.7,147.7,789.3,147.6z"/>
	<path id="path4402" class="st1" d="M210.8,147.6C123.1,147.6,52,218.7,52,306.4c0,53.3,26.8,103,71.3,132.4
		c6.8-113.6,75.4-214.3,178.7-262.2C275.3,157.8,243.4,147.7,210.8,147.6z"/>
	<path class="st2" d="M785,765.5c7.8-16.6,12-34.2,12-52.4c0-102.1-132.1-184.9-295-184.9s-295,82.8-295,185
		c0,21.6,5.9,42.3,16.8,61.5c69.8,70.5,166.2,114.6,272.9,116.1c0.4,0,0.9,0,1.3,0C611.4,890.8,713.5,842.6,785,765.5z"/>
	<path d="M665.5,151.3L589,227.4l3.1-103.5C618,131.2,642.5,140.4,665.5,151.3z M414.2,122.8c-27.6,7.2-53.7,16.6-78.2,27.9
		l84.4,79.4L414.2,122.8z M460.5,113.7l41,100.2l38.2-98.6c-16.3-1.6-33-2.5-49.9-2.5C480,112.8,470.2,113.1,460.5,113.7z
		 M887.3,483.8L776,520.1l105.8,50.1L887.3,483.8z M880.6,580.8l-116.8,6.5l89.3,75.6L880.6,580.8z M118.2,570.2L224,520.1
		l-111.2-36.3L118.2,570.2z M147,662.9l89.3-75.6l-116.8-6.5L147,662.9z"/>
	<path id="path3377" d="M679.3,649c-1.5-1.4-3.5-2.2-5.6-2.2c-2.3,0-4.5,1-6.1,2.6c-52.4,55.9-106.2,86.1-159.9,89.9v-71.4
		l50.6-47.4l58.4-54.6c0,0-50.2-30.4-116.7-30.4s-116.7,30.4-116.7,30.4l58.4,54.6l50.6,47.4v71.4c-53.7-3.8-107.5-34.1-159.9-89.9
		c-1.6-1.7-3.8-2.6-6.1-2.6c-2.1,0-4,0.8-5.6,2.2c-1.6,1.5-2.6,3.6-2.7,5.8s0.7,4.4,2.2,6c57.9,61.8,118.3,93.9,179.5,95.5l0,0
		c0.1,0,0.5,0,0.5,0c0.1,0,0.2,0,0.3,0c61.1-1.7,121.4-33.8,179.3-95.5c1.5-1.6,2.3-3.8,2.2-6C681.9,652.6,680.9,650.5,679.3,649z"
		/>
	<path d="M700.2,495.5c1.3,3.7,2.1,7.7,2.1,11.8c0,19.2-15.6,34.8-34.8,34.8s-34.8-15.6-34.8-34.8s15.6-34.8,34.8-34.8
		c8.3,0,15.9,2.9,21.9,7.8l-17.6,24L700.2,495.5z M337,504.3l17.6-24c-6-4.9-13.6-7.8-21.9-7.8c-19.2,0-34.8,15.6-34.8,34.8
		s15.6,34.8,34.8,34.8c19.2,0,34.8-15.6,34.8-34.8c0-4.2-0.7-8.1-2.1-11.8L337,504.3z"/>
</g>
</svg>
